<mxfile host="app.diagrams.net" modified="2023-09-26T15:21:46.052Z" agent="Mozilla/5.0 (X11; Linux x86_64; rv:109.0) Gecko/20100101 Firefox/114.0" etag="2rG5r-Ss235kpXSRAyk9" version="21.8.0" type="github">
  <diagram name="Página-1" id="qojq1rzNZAak6m1u8Fwv">
    <mxGraphModel dx="1434" dy="795" grid="1" gridSize="10" guides="1" tooltips="1" connect="1" arrows="1" fold="1" page="1" pageScale="1" pageWidth="827" pageHeight="1169" math="0" shadow="0">
      <root>
        <mxCell id="0" />
        <mxCell id="1" parent="0" />
        <mxCell id="YN6VXWy9t-qKrCkxGkYE-6" style="edgeStyle=orthogonalEdgeStyle;rounded=0;orthogonalLoop=1;jettySize=auto;html=1;exitX=1;exitY=0.5;exitDx=0;exitDy=0;entryX=0;entryY=0.5;entryDx=0;entryDy=0;" edge="1" parent="1" source="YN6VXWy9t-qKrCkxGkYE-1" target="YN6VXWy9t-qKrCkxGkYE-2">
          <mxGeometry relative="1" as="geometry" />
        </mxCell>
        <mxCell id="YN6VXWy9t-qKrCkxGkYE-1" value="&lt;div&gt;fábrica&lt;/div&gt;" style="rounded=0;whiteSpace=wrap;html=1;fillColor=#fff2cc;strokeColor=#d6b656;" vertex="1" parent="1">
          <mxGeometry x="40" y="90" width="80" height="30" as="geometry" />
        </mxCell>
        <mxCell id="YN6VXWy9t-qKrCkxGkYE-7" style="edgeStyle=orthogonalEdgeStyle;rounded=0;orthogonalLoop=1;jettySize=auto;html=1;exitX=1;exitY=0.5;exitDx=0;exitDy=0;entryX=0;entryY=0.5;entryDx=0;entryDy=0;" edge="1" parent="1" source="YN6VXWy9t-qKrCkxGkYE-2" target="YN6VXWy9t-qKrCkxGkYE-3">
          <mxGeometry relative="1" as="geometry" />
        </mxCell>
        <mxCell id="YN6VXWy9t-qKrCkxGkYE-2" value="crea" style="rhombus;whiteSpace=wrap;html=1;fillColor=#dae8fc;strokeColor=#6c8ebf;" vertex="1" parent="1">
          <mxGeometry x="160" y="90" width="70" height="30" as="geometry" />
        </mxCell>
        <mxCell id="YN6VXWy9t-qKrCkxGkYE-3" value="articulos" style="rounded=0;whiteSpace=wrap;html=1;fillColor=#fff2cc;strokeColor=#d6b656;" vertex="1" parent="1">
          <mxGeometry x="280" y="90" width="80" height="30" as="geometry" />
        </mxCell>
        <mxCell id="YN6VXWy9t-qKrCkxGkYE-9" style="edgeStyle=orthogonalEdgeStyle;rounded=0;orthogonalLoop=1;jettySize=auto;html=1;exitX=1;exitY=0.5;exitDx=0;exitDy=0;entryX=0.5;entryY=1;entryDx=0;entryDy=0;" edge="1" parent="1" source="YN6VXWy9t-qKrCkxGkYE-4" target="YN6VXWy9t-qKrCkxGkYE-3">
          <mxGeometry relative="1" as="geometry" />
        </mxCell>
        <mxCell id="YN6VXWy9t-qKrCkxGkYE-4" value="pide" style="rhombus;whiteSpace=wrap;html=1;fillColor=#dae8fc;strokeColor=#6c8ebf;" vertex="1" parent="1">
          <mxGeometry x="160" y="180" width="90" height="30" as="geometry" />
        </mxCell>
        <mxCell id="YN6VXWy9t-qKrCkxGkYE-8" style="edgeStyle=orthogonalEdgeStyle;rounded=0;orthogonalLoop=1;jettySize=auto;html=1;exitX=1;exitY=0.5;exitDx=0;exitDy=0;entryX=0;entryY=0.5;entryDx=0;entryDy=0;" edge="1" parent="1" source="YN6VXWy9t-qKrCkxGkYE-5" target="YN6VXWy9t-qKrCkxGkYE-4">
          <mxGeometry relative="1" as="geometry" />
        </mxCell>
        <mxCell id="YN6VXWy9t-qKrCkxGkYE-5" value="cliente" style="rounded=0;whiteSpace=wrap;html=1;fillColor=#fff2cc;strokeColor=#d6b656;" vertex="1" parent="1">
          <mxGeometry x="40" y="180" width="80" height="30" as="geometry" />
        </mxCell>
      </root>
    </mxGraphModel>
  </diagram>
</mxfile>
